<svg width="185" height="235" viewBox="0 0 185 235" fill="none" xmlns="http://www.w3.org/2000/svg">
<path d="M0.498047 229V228.038L3.27637 224.562C3.38379 224.422 3.45703 224.291 3.49609 224.171C3.52214 224.057 3.53516 223.95 3.53516 223.849C3.53516 223.582 3.45215 223.349 3.28613 223.15C3.11361 222.952 2.86947 222.849 2.55371 222.843C2.27376 222.843 2.04102 222.932 1.85547 223.111C1.66341 223.29 1.54948 223.543 1.51367 223.868H0.498047C0.524089 223.276 0.722656 222.786 1.09375 222.398C1.4681 222.021 1.92871 221.829 2.47559 221.822C3.08757 221.829 3.58398 222.024 3.96484 222.408C4.35221 222.789 4.54915 223.272 4.55566 223.858C4.55566 224.327 4.41243 224.744 4.12598 225.108L1.83594 227.979H4.55566V229H0.498047ZM8.37891 226.949V223.932C8.35938 223.219 8.02572 222.856 7.37793 222.843C6.72689 222.856 6.39486 223.219 6.38184 223.932V226.949C6.39486 227.669 6.72689 228.032 7.37793 228.038C8.02572 228.032 8.35938 227.669 8.37891 226.949ZM5.36133 227.008V223.868C5.36784 223.211 5.5778 222.704 5.99121 222.35C6.37858 221.998 6.84082 221.822 7.37793 221.822C7.93132 221.822 8.40169 221.998 8.78906 222.35C9.18294 222.704 9.38639 223.211 9.39941 223.868V227.008C9.38639 227.662 9.18294 228.167 8.78906 228.521C8.40169 228.873 7.93132 229.052 7.37793 229.059C6.84082 229.052 6.37858 228.873 5.99121 228.521C5.5778 228.167 5.36784 227.662 5.36133 227.008ZM10.1074 229V228.038L12.8857 224.562C12.9932 224.422 13.0664 224.291 13.1055 224.171C13.1315 224.057 13.1445 223.95 13.1445 223.849C13.1445 223.582 13.0615 223.349 12.8955 223.15C12.723 222.952 12.4788 222.849 12.1631 222.843C11.8831 222.843 11.6504 222.932 11.4648 223.111C11.2728 223.29 11.1589 223.543 11.123 223.868H10.1074C10.1335 223.276 10.332 222.786 10.7031 222.398C11.0775 222.021 11.5381 221.829 12.085 221.822C12.6969 221.829 13.1934 222.024 13.5742 222.408C13.9616 222.789 14.1585 223.272 14.165 223.858C14.165 224.327 14.0218 224.744 13.7354 225.108L11.4453 227.979H14.165V229H10.1074ZM15.0879 225.729V221.881H18.8818V222.901H16.0498V224.513C16.3818 224.252 16.7611 224.122 17.1875 224.122C17.4609 224.129 17.7116 224.177 17.9395 224.269C18.1543 224.369 18.3285 224.493 18.4619 224.64C18.6605 224.835 18.8037 225.061 18.8916 225.318C18.9372 225.458 18.9697 225.629 18.9893 225.831C19.0088 226.036 19.0186 226.288 19.0186 226.588C19.0186 227.05 18.986 227.405 18.9209 227.652C18.8525 227.896 18.7386 228.113 18.5791 228.302C18.4391 228.487 18.2357 228.657 17.9688 228.81C17.7083 228.969 17.3991 229.052 17.041 229.059C16.5592 229.059 16.1182 228.915 15.7178 228.629C15.3109 228.336 15.0586 227.862 14.9609 227.208H15.9814C16.0921 227.755 16.4323 228.032 17.002 228.038C17.2461 228.038 17.4414 227.989 17.5879 227.892C17.7279 227.797 17.8255 227.674 17.8809 227.521C17.9395 227.368 17.9753 227.201 17.9883 227.022C17.9948 226.847 17.998 226.676 17.998 226.51C18.0046 226.103 17.9411 225.772 17.8076 225.519C17.736 225.398 17.6302 225.302 17.4902 225.23C17.3503 225.172 17.1761 225.143 16.9678 225.143C16.7822 225.143 16.613 225.185 16.46 225.27C16.307 225.357 16.1702 225.51 16.0498 225.729H15.0879ZM27.0361 226.07H27.7588C27.5309 227.177 26.9206 227.737 25.9277 227.75C25.2409 227.743 24.7038 227.521 24.3164 227.081C23.9225 226.661 23.7256 226.114 23.7256 225.44C23.7256 224.747 23.916 224.19 24.2969 223.771C24.6712 223.351 25.2051 223.137 25.8984 223.131C26.3965 223.131 26.8132 223.264 27.1484 223.531C27.487 223.798 27.6904 224.208 27.7588 224.762H27.0361C26.984 224.488 26.8571 224.269 26.6553 224.103C26.4502 223.933 26.2012 223.849 25.9082 223.849C25.4688 223.855 25.1253 224.007 24.8779 224.303C24.6305 224.602 24.5068 224.975 24.5068 225.421C24.5068 225.847 24.637 226.217 24.8975 226.529C25.1514 226.858 25.4948 227.026 25.9277 227.032C26.2207 227.032 26.4697 226.941 26.6748 226.759C26.8701 226.586 26.9906 226.357 27.0361 226.07ZM22.1777 225.44C22.1908 224.415 22.5472 223.559 23.2471 222.872C23.9209 222.185 24.7705 221.835 25.7959 221.822C26.8245 221.835 27.6807 222.185 28.3643 222.872C29.0511 223.559 29.401 224.415 29.4141 225.44C29.401 226.466 29.0511 227.315 28.3643 227.989C27.6807 228.689 26.8245 229.046 25.7959 229.059C24.7705 229.046 23.9209 228.689 23.2471 227.989C22.5472 227.315 22.1908 226.466 22.1777 225.44ZM22.959 225.44C22.9655 226.293 23.2373 226.983 23.7744 227.511C24.2952 228.058 24.9691 228.334 25.7959 228.341C26.6292 228.334 27.3096 228.058 27.8369 227.511C28.3643 226.983 28.6312 226.293 28.6377 225.44C28.6312 224.575 28.3643 223.878 27.8369 223.351C27.3096 222.817 26.6292 222.547 25.7959 222.54C24.9691 222.547 24.2952 222.817 23.7744 223.351C23.2373 223.878 22.9655 224.575 22.959 225.44ZM36.6064 227.008H37.749C37.5928 227.669 37.2949 228.176 36.8555 228.531C36.403 228.883 35.8675 229.059 35.249 229.059C34.6891 229.046 34.222 228.909 33.8477 228.648C33.4668 228.398 33.1901 228.108 33.0176 227.779C32.9655 227.672 32.9183 227.569 32.876 227.472C32.8369 227.371 32.8044 227.244 32.7783 227.091C32.7295 226.804 32.7051 226.254 32.7051 225.44C32.7051 224.614 32.7295 224.06 32.7783 223.78C32.8304 223.5 32.9102 223.274 33.0176 223.102C33.1901 222.773 33.4668 222.48 33.8477 222.223C34.222 221.962 34.6891 221.829 35.249 221.822C35.9359 221.829 36.4958 222.032 36.9287 222.433C37.3617 222.836 37.6351 223.336 37.749 223.932H36.6064C36.5186 223.645 36.359 223.401 36.1279 223.199C35.887 223.007 35.5941 222.908 35.249 222.901C34.9951 222.908 34.777 222.958 34.5947 223.053C34.4092 223.15 34.2594 223.272 34.1455 223.419C34.0055 223.572 33.9128 223.769 33.8672 224.01C33.8151 224.264 33.7891 224.741 33.7891 225.44C33.7891 226.14 33.8151 226.614 33.8672 226.861C33.9128 227.109 34.0055 227.309 34.1455 227.462C34.2594 227.608 34.4092 227.727 34.5947 227.818C34.777 227.926 34.9951 227.979 35.249 227.979C35.8545 227.979 36.307 227.656 36.6064 227.008ZM38.4229 229V221.881H39.4434V224.469H39.4629C39.7982 224.068 40.2376 223.868 40.7812 223.868C41.2012 223.868 41.5853 224.016 41.9336 224.312C42.2786 224.612 42.4593 225.051 42.4756 225.631V229H41.4551V225.982C41.4551 225.628 41.3607 225.357 41.1719 225.172C40.9863 224.983 40.7471 224.889 40.4541 224.889C40.1611 224.889 39.9202 224.983 39.7314 225.172C39.5394 225.357 39.4434 225.628 39.4434 225.982V229H38.4229ZM43.7939 227.301V223.932H44.8145V226.949C44.8145 227.291 44.9105 227.558 45.1025 227.75C45.2913 227.942 45.5322 228.038 45.8252 228.038C46.1182 228.038 46.3574 227.942 46.543 227.75C46.7318 227.558 46.8262 227.291 46.8262 226.949V223.932H47.8467V229H46.8262V228.458H46.8066C46.4714 228.858 46.0335 229.059 45.4932 229.059C45.0732 229.052 44.694 228.899 44.3555 228.6C43.9876 228.307 43.8005 227.874 43.7939 227.301ZM49.2236 223.932V222.389H50.2441V223.932H50.9863V224.708H50.2441V227.662C50.2376 227.919 50.3581 228.045 50.6055 228.038H50.9863V229H50.4541C50.096 229 49.8031 228.889 49.5752 228.668C49.3408 228.456 49.2236 228.15 49.2236 227.75V224.708H48.7158V223.932H49.2236ZM51.9482 229V223.932H52.9688V224.469H52.9883C53.3236 224.068 53.763 223.868 54.3066 223.868C54.7266 223.868 55.1107 224.016 55.459 224.312C55.804 224.612 55.9847 225.051 56.001 225.631V229H54.9805V225.982C54.9805 225.628 54.8861 225.357 54.6973 225.172C54.5117 224.983 54.2725 224.889 53.9795 224.889C53.6865 224.889 53.4456 224.983 53.2568 225.172C53.0648 225.357 52.9688 225.628 52.9688 225.982V229H51.9482ZM61.25 226.852H58.0908C58.0908 227.258 58.208 227.568 58.4424 227.779C58.6605 227.994 58.9469 228.102 59.3018 228.102C59.7152 228.102 60.0846 227.937 60.4102 227.608L61.1475 228.238C60.6299 228.792 60.0212 229.065 59.3213 229.059C59.0544 229.059 58.7939 229.02 58.54 228.941C58.4131 228.899 58.2894 228.842 58.1689 228.771C58.042 228.709 57.9232 228.632 57.8125 228.541C57.5977 228.352 57.4235 228.089 57.29 227.75C57.1436 227.424 57.0703 227.001 57.0703 226.48C57.0703 225.979 57.1338 225.562 57.2607 225.23C57.3877 224.892 57.5505 224.625 57.749 224.43C57.9508 224.231 58.1771 224.088 58.4277 224C58.6751 223.912 58.9193 223.868 59.1602 223.868C59.7396 223.875 60.2295 224.065 60.6299 224.439C61.0368 224.82 61.2435 225.344 61.25 226.012V226.852ZM58.0908 226.012H60.2295C60.2165 225.618 60.1107 225.32 59.9121 225.118C59.7168 224.926 59.4661 224.83 59.1602 224.83C58.8542 224.83 58.6035 224.926 58.4082 225.118C58.2161 225.32 58.1104 225.618 58.0908 226.012ZM63.4082 228.8L61.5918 223.932H62.6709L63.8721 227.481H63.8916L65.0879 223.932H66.1719L63.9893 230.05C63.8493 230.431 63.6556 230.694 63.4082 230.841C63.1576 230.981 62.8743 231.051 62.5586 231.051H62.2217V230.089H62.5195C62.653 230.089 62.7767 230.053 62.8906 229.981C63.0046 229.907 63.0843 229.796 63.1299 229.649L63.4082 228.8ZM68.1152 226.451H70.1953L69.165 223.341H69.1455L68.1152 226.451ZM71.0547 229L70.5029 227.408H67.8027L67.2559 229H66.1133L68.7012 221.881H69.6045L72.1924 229H71.0547ZM75.8984 228.468C75.5632 228.849 75.1253 229.046 74.585 229.059C74.279 229.052 74.0169 228.989 73.7988 228.868C73.571 228.751 73.3805 228.595 73.2275 228.399C73.0876 228.24 72.9948 228.023 72.9492 227.75C72.8939 227.49 72.8662 227.06 72.8662 226.461C72.8662 225.852 72.8939 225.419 72.9492 225.162C72.9948 224.902 73.0876 224.692 73.2275 224.532C73.514 224.106 73.9665 223.884 74.585 223.868C74.8454 223.868 75.0863 223.922 75.3076 224.029C75.5127 224.143 75.7096 224.29 75.8984 224.469V221.881H76.9189V229H75.8984V228.468ZM74.8975 224.889C74.6566 224.889 74.4727 224.929 74.3457 225.011C74.2057 225.099 74.1032 225.219 74.0381 225.372C73.9762 225.525 73.9355 225.691 73.916 225.87C73.8965 226.062 73.8867 226.259 73.8867 226.461C73.8867 226.653 73.8965 226.84 73.916 227.022C73.9355 227.215 73.9762 227.387 74.0381 227.54C74.1032 227.687 74.2057 227.807 74.3457 227.901C74.4727 227.993 74.6566 228.038 74.8975 228.038C75.1383 228.038 75.3288 227.989 75.4688 227.892C75.6087 227.797 75.7048 227.674 75.7568 227.521C75.8219 227.368 75.8659 227.197 75.8887 227.008C75.8952 226.822 75.8984 226.64 75.8984 226.461C75.8984 226.266 75.8952 226.078 75.8887 225.899C75.8659 225.72 75.8219 225.554 75.7568 225.401C75.7048 225.248 75.6087 225.125 75.4688 225.03C75.3288 224.936 75.1383 224.889 74.8975 224.889ZM78.2129 227.452C78.6263 227.885 79.1602 228.102 79.8145 228.102C80.1074 228.102 80.3467 228.045 80.5322 227.931C80.7178 227.817 80.8105 227.657 80.8105 227.452C80.8105 227.27 80.7552 227.143 80.6445 227.071C80.5306 226.996 80.3792 226.956 80.1904 226.949L79.292 226.871C78.8656 226.832 78.5189 226.689 78.252 226.441C77.9785 226.201 77.8385 225.864 77.832 225.431C77.8385 224.91 78.0225 224.519 78.3838 224.259C78.7354 223.998 79.1813 223.868 79.7217 223.868C79.9561 223.868 80.166 223.883 80.3516 223.912C80.5371 223.945 80.7113 223.99 80.874 224.049C81.1865 224.176 81.4665 224.347 81.7139 224.562L81.084 225.299C80.8887 225.159 80.682 225.043 80.4639 224.952C80.249 224.871 80.0016 224.83 79.7217 224.83C79.4027 224.83 79.1797 224.887 79.0527 225.001C78.9193 225.115 78.8525 225.261 78.8525 225.44C78.846 225.554 78.8965 225.654 79.0039 225.738C79.1016 225.833 79.2741 225.893 79.5215 225.919L80.3613 225.982C80.8887 226.021 81.2695 226.181 81.5039 226.461C81.722 226.734 81.8311 227.081 81.8311 227.501C81.8245 227.993 81.6243 228.372 81.2305 228.639C80.8398 228.912 80.3402 229.052 79.7314 229.059C78.9046 229.059 78.1608 228.756 77.5 228.15L78.2129 227.452ZM85.2686 229V221.881H86.2891V224.469C86.4746 224.29 86.6781 224.143 86.8994 224.029C87.1045 223.922 87.3372 223.868 87.5977 223.868C88.2194 223.884 88.6735 224.106 88.96 224.532C89.0999 224.692 89.196 224.902 89.248 225.162C89.2969 225.419 89.3213 225.852 89.3213 226.461C89.3213 227.06 89.2969 227.49 89.248 227.75C89.196 228.023 89.0999 228.24 88.96 228.399C88.82 228.595 88.6361 228.751 88.4082 228.868C88.1836 228.989 87.9134 229.052 87.5977 229.059C87.0638 229.046 86.6276 228.849 86.2891 228.468V229H85.2686ZM87.29 224.889C87.0622 224.889 86.8815 224.936 86.748 225.03C86.6081 225.125 86.5055 225.248 86.4404 225.401C86.3786 225.554 86.3379 225.72 86.3184 225.899C86.2988 226.078 86.2891 226.266 86.2891 226.461C86.2891 226.64 86.2988 226.822 86.3184 227.008C86.3379 227.197 86.3786 227.368 86.4404 227.521C86.5055 227.674 86.6081 227.797 86.748 227.892C86.8815 227.989 87.0622 228.038 87.29 228.038C87.5309 228.038 87.7214 227.993 87.8613 227.901C88.0013 227.807 88.1006 227.687 88.1592 227.54C88.2243 227.387 88.2682 227.215 88.291 227.022C88.2975 226.84 88.3008 226.653 88.3008 226.461C88.3008 226.259 88.2975 226.062 88.291 225.87C88.2682 225.691 88.2243 225.525 88.1592 225.372C88.1006 225.219 88.0013 225.099 87.8613 225.011C87.7214 224.929 87.5309 224.889 87.29 224.889ZM91.5527 228.8L89.7363 223.932H90.8154L92.0166 227.481H92.0361L93.2324 223.932H94.3164L92.1338 230.05C91.9938 230.431 91.8001 230.694 91.5527 230.841C91.3021 230.981 91.0189 231.051 90.7031 231.051H90.3662V230.089H90.6641C90.7975 230.089 90.9212 230.053 91.0352 229.981C91.1491 229.907 91.2288 229.796 91.2744 229.649L91.5527 228.8ZM97.4023 229V221.881H99.8926C100.856 221.887 101.579 222.288 102.061 223.082C102.233 223.349 102.342 223.629 102.388 223.922C102.424 224.215 102.441 224.721 102.441 225.44C102.441 226.205 102.414 226.739 102.358 227.042C102.332 227.195 102.293 227.332 102.241 227.452C102.186 227.569 102.119 227.691 102.041 227.818C101.833 228.154 101.543 228.43 101.172 228.648C100.804 228.883 100.353 229 99.8193 229H97.4023ZM98.4814 222.901V227.979H99.7705C100.376 227.979 100.815 227.773 101.089 227.359C101.209 227.206 101.286 227.013 101.318 226.778C101.348 226.547 101.362 226.114 101.362 225.479C101.362 224.861 101.348 224.418 101.318 224.151C101.279 223.884 101.187 223.668 101.04 223.502C100.741 223.089 100.317 222.888 99.7705 222.901H98.4814ZM103.638 229V223.932H104.658V229H103.638ZM103.638 222.901V221.881H104.658V222.901H103.638ZM108.862 228.468C108.527 228.849 108.091 229.046 107.554 229.059C107.225 229.052 106.951 228.982 106.733 228.849C106.506 228.722 106.331 228.585 106.211 228.438C106.077 228.272 105.981 228.069 105.923 227.828C105.861 227.59 105.83 227.138 105.83 226.471C105.83 225.79 105.861 225.33 105.923 225.089C105.981 224.851 106.077 224.651 106.211 224.488C106.331 224.329 106.506 224.186 106.733 224.059C106.951 223.938 107.225 223.875 107.554 223.868C108.058 223.868 108.494 224.068 108.862 224.469V223.932H109.883V228.878C109.87 229.64 109.65 230.2 109.224 230.558C108.794 230.925 108.28 231.109 107.681 231.109C106.994 231.096 106.408 230.813 105.923 230.26L106.714 229.63C106.844 229.75 106.994 229.853 107.163 229.938C107.336 230.032 107.515 230.082 107.7 230.089C108.049 230.089 108.328 229.993 108.54 229.801C108.748 229.605 108.856 229.335 108.862 228.99V228.468ZM106.851 226.471C106.851 226.858 106.864 227.125 106.89 227.271C106.912 227.424 106.966 227.551 107.051 227.652C107.119 227.743 107.223 227.826 107.363 227.901C107.497 227.993 107.663 228.038 107.861 228.038C108.06 228.038 108.226 227.993 108.359 227.901C108.493 227.826 108.594 227.743 108.662 227.652C108.747 227.551 108.804 227.424 108.833 227.271C108.853 227.125 108.862 226.858 108.862 226.471C108.862 226.077 108.853 225.803 108.833 225.65C108.804 225.497 108.747 225.374 108.662 225.279C108.594 225.188 108.493 225.099 108.359 225.011C108.226 224.936 108.06 224.895 107.861 224.889C107.663 224.895 107.497 224.936 107.363 225.011C107.223 225.099 107.119 225.188 107.051 225.279C106.966 225.374 106.912 225.497 106.89 225.65C106.864 225.803 106.851 226.077 106.851 226.471ZM111.235 229V223.932H112.256V229H111.235ZM111.235 222.901V221.881H112.256V222.901H111.235ZM113.667 223.932V222.389H114.688V223.932H115.43V224.708H114.688V227.662C114.681 227.919 114.801 228.045 115.049 228.038H115.43V229H114.897C114.539 229 114.246 228.889 114.019 228.668C113.784 228.456 113.667 228.15 113.667 227.75V224.708H113.159V223.932H113.667ZM116.543 227.452C116.956 227.885 117.49 228.102 118.145 228.102C118.438 228.102 118.677 228.045 118.862 227.931C119.048 227.817 119.141 227.657 119.141 227.452C119.141 227.27 119.085 227.143 118.975 227.071C118.861 226.996 118.709 226.956 118.521 226.949L117.622 226.871C117.196 226.832 116.849 226.689 116.582 226.441C116.309 226.201 116.169 225.864 116.162 225.431C116.169 224.91 116.353 224.519 116.714 224.259C117.065 223.998 117.511 223.868 118.052 223.868C118.286 223.868 118.496 223.883 118.682 223.912C118.867 223.945 119.041 223.99 119.204 224.049C119.517 224.176 119.797 224.347 120.044 224.562L119.414 225.299C119.219 225.159 119.012 225.043 118.794 224.952C118.579 224.871 118.332 224.83 118.052 224.83C117.733 224.83 117.51 224.887 117.383 225.001C117.249 225.115 117.183 225.261 117.183 225.44C117.176 225.554 117.227 225.654 117.334 225.738C117.432 225.833 117.604 225.893 117.852 225.919L118.691 225.982C119.219 226.021 119.6 226.181 119.834 226.461C120.052 226.734 120.161 227.081 120.161 227.501C120.155 227.993 119.954 228.372 119.561 228.639C119.17 228.912 118.67 229.052 118.062 229.059C117.235 229.059 116.491 228.756 115.83 228.15L116.543 227.452ZM121.196 231.051V223.932H122.217V224.459C122.555 224.081 122.992 223.884 123.525 223.868C124.147 223.884 124.601 224.106 124.888 224.532C125.028 224.692 125.124 224.902 125.176 225.162C125.225 225.419 125.249 225.855 125.249 226.471C125.249 227.07 125.225 227.499 125.176 227.76C125.124 228.02 125.028 228.233 124.888 228.399C124.748 228.595 124.564 228.751 124.336 228.868C124.111 228.989 123.841 229.052 123.525 229.059C123.265 229.059 123.032 229.002 122.827 228.888C122.606 228.784 122.402 228.64 122.217 228.458V231.051H121.196ZM123.218 228.038C123.459 228.038 123.649 227.993 123.789 227.901C123.929 227.807 124.028 227.687 124.087 227.54C124.152 227.387 124.196 227.218 124.219 227.032C124.225 226.85 124.229 226.663 124.229 226.471C124.229 226.269 124.225 226.072 124.219 225.88C124.196 225.688 124.152 225.519 124.087 225.372C124.028 225.219 123.929 225.099 123.789 225.011C123.649 224.929 123.459 224.889 123.218 224.889C122.99 224.889 122.809 224.936 122.676 225.03C122.536 225.125 122.433 225.248 122.368 225.401C122.306 225.554 122.266 225.72 122.246 225.899C122.227 226.088 122.217 226.279 122.217 226.471C122.217 226.65 122.227 226.829 122.246 227.008C122.266 227.197 122.306 227.368 122.368 227.521C122.433 227.674 122.536 227.797 122.676 227.892C122.809 227.989 122.99 228.038 123.218 228.038ZM129.053 229V228.551H129.033C128.939 228.723 128.792 228.85 128.594 228.932C128.398 229.016 128.128 229.059 127.783 229.059C127.217 229.052 126.781 228.902 126.475 228.609C126.152 228.323 125.991 227.957 125.991 227.511C125.991 227.084 126.131 226.731 126.411 226.451C126.691 226.165 127.101 226.018 127.642 226.012H129.053V225.479C129.059 225.034 128.713 224.817 128.013 224.83C127.759 224.83 127.559 224.856 127.412 224.908C127.259 224.97 127.139 225.074 127.051 225.221L126.25 224.61C126.637 224.103 127.209 223.855 127.964 223.868C128.602 223.862 129.111 223.982 129.492 224.229C129.873 224.483 130.067 224.92 130.073 225.538V229H129.053ZM129.053 227.218V226.852H127.832C127.24 226.865 126.947 227.068 126.953 227.462C126.953 227.634 127.03 227.781 127.183 227.901C127.329 228.035 127.572 228.102 127.91 228.102C128.337 228.108 128.638 228.058 128.813 227.95C128.973 227.843 129.053 227.599 129.053 227.218ZM131.392 229V223.932H132.412V224.469H132.432C132.767 224.068 133.206 223.868 133.75 223.868C134.157 223.875 134.512 224.005 134.814 224.259L134.072 225.143C133.857 224.973 133.634 224.889 133.403 224.889C133.143 224.889 132.92 224.973 132.734 225.143C132.526 225.309 132.419 225.577 132.412 225.948V229H131.392ZM135.288 229V221.881H136.309V226.31H136.328L138.276 223.932H139.497L137.749 225.909L139.736 229H138.457L137.109 226.632L136.309 227.54V229H135.288Z" fill="white"/>
<path d="M145 160H105V200H145V160Z" fill="#D81F26"/>
<path d="M105 120H65V160H105V120Z" fill="#E08C23"/>
<path d="M145 120H105V160H145V120Z" fill="#D81F26"/>
<path d="M185 120H145V160H185V120Z" fill="#D81F26"/>
<path d="M105 80H65V120H105V80Z" fill="#E6B71D"/>
<path d="M49 25H9V65H49V25Z" fill="#E6B71D"/>
<path d="M145 80H105V120H145V80Z" fill="#E08C23"/>
<path d="M185 80H145V120H185V80Z" fill="#D81F26"/>
<path d="M145 40H105V80H145V40Z" fill="#E6B71D"/>
<path d="M185 40H145V80H185V40Z" fill="#E08C23"/>
<path d="M185 0H145V40H185V0Z" fill="#E6B71D"/>
</svg>
