<svg width="24" height="40" viewBox="0 0 24 40" fill="none" xmlns="http://www.w3.org/2000/svg">
<path d="M15.9998 32.0005H8V40.0003H15.9998V32.0005Z" fill="#D81F26"/>
<path d="M7.99976 24.0005H0V32.0003H7.99976V24.0005Z" fill="#E08C23"/>
<path d="M15.9998 24.0005H8V32.0003H15.9998V24.0005Z" fill="#D81F26"/>
<path d="M23.9993 24.0005H15.9995V32.0003H23.9993V24.0005Z" fill="#D81F26"/>
<path d="M7.99976 15.9995H0V23.9993H7.99976V15.9995Z" fill="#E6B71D"/>
<path d="M15.9998 15.9995H8V23.9993H15.9998V15.9995Z" fill="#E08C23"/>
<path d="M23.9993 15.9995H15.9995V23.9993H23.9993V15.9995Z" fill="#D81F26"/>
<path d="M15.9998 8H8V15.9998H15.9998V8Z" fill="#E6B71D"/>
<path d="M23.9993 8H15.9995V15.9998H23.9993V8Z" fill="#E08C23"/>
<path d="M23.9993 0H15.9995V7.99976H23.9993V0Z" fill="#E6B71D"/>
</svg>
