<svg width="261" height="60" viewBox="0 0 261 60" fill="none" xmlns="http://www.w3.org/2000/svg">
<path d="M71.671 45.0249C69.9284 45.8207 67.921 46.2186 65.649 46.2186C63.5777 46.2186 61.6645 45.8776 59.9112 45.1954C58.1561 44.5133 56.6355 43.5469 55.3476 42.2981C54.0597 41.0493 53.0489 39.5518 52.3171 37.8091C51.5852 36.0665 51.2192 34.1479 51.2192 32.0518C51.2192 29.9556 51.5923 27.9607 52.3366 26.2181C53.0809 24.4754 54.1095 22.9921 55.424 21.7681C56.7368 20.5442 58.2769 19.6027 60.0444 18.9454C61.812 18.2899 63.7181 17.9613 65.7645 17.9613C67.6581 17.9613 69.5198 18.297 71.3513 18.965C73.181 19.6347 74.6661 20.6135 75.8012 21.8996L71.4081 26.2927C70.8024 25.4595 70.0065 24.8413 69.0224 24.4363C68.0383 24.0331 67.0275 23.8306 65.9919 23.8306C64.855 23.8306 63.814 24.0384 62.8672 24.4559C61.9203 24.8733 61.105 25.4471 60.4246 26.179C59.7425 26.9109 59.2131 27.776 58.8329 28.7743C58.4546 29.7726 58.2645 30.8634 58.2645 32.05C58.2645 33.2366 58.4546 34.3735 58.8329 35.3825C59.2113 36.3933 59.7353 37.2567 60.4051 37.9779C61.073 38.6973 61.8759 39.2605 62.8103 39.6637C63.7447 40.0687 64.7661 40.2695 65.8782 40.2695C67.1661 40.2695 68.2888 40.0172 69.2498 39.5127C70.2091 39.0082 70.9782 38.3509 71.5609 37.5427L76.0676 41.7847C74.881 43.149 73.4155 44.2273 71.6746 45.0231L71.671 45.0249Z" fill="#231F20"/>
<path d="M89.7726 45.4974V35.2706C89.7726 34.7395 89.7353 34.235 89.6589 33.7553C89.5825 33.2757 89.4369 32.8529 89.2237 32.487C89.0088 32.121 88.7245 31.8297 88.371 31.6165C88.0175 31.4016 87.5628 31.295 87.0068 31.295C85.9214 31.295 85.0882 31.6805 84.5073 32.4497C83.9265 33.2206 83.6369 34.1728 83.6369 35.3097V45.4992H77.4248V16.8635H83.6369V29.023H83.7133C84.1432 28.2662 84.8235 27.5894 85.7579 26.9961C86.6923 26.4028 87.815 26.1061 89.1296 26.1061C90.4441 26.1061 91.4975 26.3335 92.368 26.7883C93.2384 27.243 93.9454 27.8292 94.489 28.5505C95.0326 29.2699 95.4234 30.0977 95.6632 31.0321C95.903 31.9665 96.0238 32.9009 96.0238 33.8353V45.501H89.7744L89.7726 45.4974Z" fill="#231F20"/>
<path d="M111.553 45.4974V42.8843H111.477C111.249 43.3142 110.953 43.7174 110.587 44.0958C110.221 44.4742 109.791 44.8028 109.299 45.0799C108.807 45.3588 108.263 45.5844 107.67 45.762C107.077 45.9379 106.451 46.0267 105.796 46.0267C104.533 46.0267 103.467 45.7994 102.595 45.3446C101.724 44.8898 101.016 44.3036 100.474 43.5824C99.9301 42.8629 99.5393 42.0422 99.2995 41.1203C99.0597 40.1983 98.9389 39.2586 98.9389 38.2976V26.6319H105.188V36.8587C105.188 37.3898 105.226 37.8943 105.302 38.374C105.378 38.8536 105.522 39.2835 105.737 39.6619C105.952 40.0402 106.236 40.3369 106.59 40.5518C106.943 40.7668 107.411 40.8734 107.991 40.8734C109.077 40.8734 109.905 40.4701 110.473 39.6619C111.042 38.8536 111.326 37.9068 111.326 36.8214V26.6319H117.538V45.4956H111.553V45.4974Z" fill="#231F20"/>
<path d="M128.234 31.2559V38.4806C128.234 39.367 128.404 40.0331 128.745 40.4772C129.086 40.9213 129.697 41.1434 130.582 41.1434C130.886 41.1434 131.207 41.1185 131.548 41.067C131.89 41.0173 132.174 40.9409 132.401 40.8396L132.478 45.3855C132.048 45.5364 131.506 45.6697 130.849 45.7834C130.191 45.8971 129.536 45.9539 128.879 45.9539C127.615 45.9539 126.555 45.7958 125.697 45.4796C124.839 45.1634 124.15 44.7086 123.633 44.1118C123.114 43.5167 122.743 42.8079 122.515 41.9854C122.288 41.1629 122.174 40.2445 122.174 39.232V31.2577H119.144V26.6372H122.135V21.6757H128.234V26.6372H132.666V31.2577H128.234V31.2559Z" fill="#231F20"/>
<path d="M147.817 45.4974V35.1942C147.817 34.663 147.772 34.1585 147.684 33.6789C147.595 33.1993 147.449 32.7765 147.248 32.4106C147.046 32.0446 146.762 31.7551 146.396 31.5401C146.03 31.3252 145.568 31.2186 145.014 31.2186C144.459 31.2186 143.973 31.327 143.555 31.5401C143.138 31.7551 142.791 32.0517 142.514 32.4301C142.235 32.8085 142.028 33.2437 141.889 33.7375C141.75 34.2296 141.681 34.7412 141.681 35.2724V45.4991H135.432V26.6355H141.454V29.2486H141.53C141.757 28.8453 142.054 28.4474 142.42 28.0548C142.786 27.664 143.216 27.33 143.708 27.0511C144.2 26.774 144.737 26.5466 145.317 26.369C145.898 26.1931 146.516 26.1043 147.174 26.1043C148.437 26.1043 149.51 26.3317 150.393 26.7864C151.275 27.2412 151.99 27.8274 152.533 28.5487C153.077 29.2681 153.468 30.0959 153.707 31.0303C153.947 31.9647 154.068 32.8991 154.068 33.8335V45.4991H147.819L147.817 45.4974Z" fill="#231F20"/>
<path d="M175.088 36.2938V37.0506C175.088 37.3028 175.076 37.5426 175.051 37.77H161.378C161.428 38.3012 161.586 38.7808 161.852 39.2089C162.117 39.6388 162.458 40.0101 162.875 40.3263C163.293 40.6425 163.758 40.8894 164.277 41.0653C164.794 41.2429 165.33 41.3299 165.886 41.3299C166.871 41.3299 167.704 41.147 168.386 40.781C169.068 40.4151 169.622 39.9426 170.052 39.3599L174.371 42.0867C173.486 43.3746 172.319 44.3658 170.867 45.0604C169.414 45.755 167.729 46.1014 165.81 46.1014C164.396 46.1014 163.057 45.8793 161.795 45.4388C160.532 44.9964 159.427 44.3534 158.481 43.5078C157.534 42.6622 156.788 41.6213 156.246 40.3831C155.702 39.1467 155.432 37.7309 155.432 36.1411C155.432 34.5512 155.697 33.2046 156.228 31.9558C156.757 30.7052 157.479 29.6447 158.386 28.7743C159.294 27.9038 160.369 27.227 161.605 26.7474C162.842 26.2678 164.181 26.028 165.62 26.028C167.059 26.028 168.285 26.2624 169.446 26.7279C170.608 27.1951 171.605 27.8701 172.438 28.7547C173.271 29.6394 173.921 30.7123 174.388 31.9736C174.856 33.2366 175.09 34.6755 175.09 36.292L175.088 36.2938ZM169.368 33.9081C169.368 32.924 169.059 32.0784 168.441 31.3696C167.821 30.6626 166.894 30.3091 165.657 30.3091C165.052 30.3091 164.495 30.4032 163.991 30.5933C163.485 30.7834 163.044 31.0428 162.666 31.3696C162.287 31.6983 161.984 32.0837 161.756 32.5243C161.529 32.9666 161.403 33.4267 161.378 33.9063H169.37L169.368 33.9081Z" fill="#231F20"/>
<path d="M187.621 48.3397C187.242 49.3238 186.82 50.2013 186.352 50.9723C185.885 51.7415 185.329 52.3987 184.686 52.9423C184.043 53.4859 183.285 53.8945 182.414 54.1734C181.544 54.4505 180.513 54.5908 179.327 54.5908C178.746 54.5908 178.145 54.5535 177.527 54.4771C176.907 54.4008 176.373 54.2995 175.918 54.1734L176.6 48.9472C176.904 49.0484 177.238 49.1302 177.604 49.1941C177.97 49.2563 178.304 49.2883 178.607 49.2883C179.567 49.2883 180.261 49.0662 180.691 48.6257C181.121 48.1833 181.487 47.558 181.789 46.7515L182.395 45.199L174.516 26.639H181.41L185.615 38.7595H185.729L189.479 26.639H196.069L187.623 48.3432L187.621 48.3397Z" fill="#231F20"/>
<path d="M213.908 45.4974L211.824 40.2321H201.447L199.477 45.4974H192.431L203.681 18.6807H209.968L221.104 45.4974H213.908ZM206.712 25.8397L203.303 35.0432H210.044L206.712 25.8397Z" fill="#231F20"/>
<path d="M235.785 45.4974V43.0353H235.708C235.102 43.9946 234.237 44.7335 233.113 45.2505C231.988 45.7674 230.796 46.0268 229.533 46.0268C228.119 46.0268 226.856 45.7479 225.746 45.1936C224.634 44.6394 223.694 43.9004 222.925 42.9785C222.154 42.0565 221.568 40.9907 221.163 39.7774C220.758 38.5659 220.557 37.3028 220.557 35.9901C220.557 34.6773 220.765 33.4214 221.183 32.2205C221.6 31.0214 222.192 29.9663 222.963 29.0585C223.732 28.149 224.666 27.4295 225.766 26.9002C226.864 26.3708 228.095 26.1043 229.459 26.1043C230.823 26.1043 232.022 26.369 232.981 26.9002C233.941 27.4313 234.687 28.0122 235.216 28.6428H235.293V16.8635H241.505V45.4992H235.785V45.4974ZM235.557 36.0274C235.557 35.4216 235.449 34.8283 235.236 34.2474C235.021 33.6665 234.717 33.1496 234.326 32.6948C233.934 32.2401 233.461 31.8741 232.905 31.597C232.349 31.3199 231.718 31.1795 231.011 31.1795C230.304 31.1795 229.635 31.3181 229.079 31.597C228.523 31.8759 228.055 32.2347 227.677 32.6771C227.299 33.1194 227.015 33.631 226.824 34.2119C226.634 34.7928 226.54 35.3861 226.54 35.9918C226.54 36.5976 226.634 37.198 226.824 37.7913C227.015 38.3847 227.299 38.9087 227.677 39.3635C228.055 39.8182 228.523 40.1842 229.079 40.4613C229.633 40.7402 230.278 40.877 231.011 40.877C231.745 40.877 232.349 40.7384 232.905 40.4613C233.459 40.1842 233.934 39.8182 234.326 39.3635C234.717 38.9087 235.021 38.3918 235.236 37.8109C235.451 37.23 235.557 36.6367 235.557 36.0309V36.0274Z" fill="#231F20"/>
<path d="M256.844 32.2028C256.339 31.7231 255.746 31.3199 255.064 30.9913C254.382 30.6626 253.662 30.4992 252.906 30.4992C252.325 30.4992 251.788 30.6129 251.296 30.8403C250.804 31.0676 250.557 31.4584 250.557 32.0145C250.557 32.5705 250.829 32.924 251.371 33.1514C251.913 33.3787 252.792 33.631 254.003 33.9081C254.71 34.0591 255.425 34.2741 256.144 34.5512C256.864 34.8301 257.514 35.1942 258.095 35.649C258.675 36.1038 259.143 36.6598 259.496 37.3153C259.85 37.9725 260.027 38.7542 260.027 39.6637C260.027 40.8503 259.787 41.854 259.308 42.6747C258.828 43.4954 258.203 44.158 257.434 44.6625C256.663 45.1688 255.798 45.5329 254.838 45.7603C253.879 45.9877 252.92 46.1014 251.959 46.1014C250.419 46.1014 248.909 45.8545 247.433 45.3624C245.955 44.8703 244.724 44.1438 243.739 43.1845L247.225 39.5109C247.779 40.1167 248.461 40.6229 249.269 41.0262C250.078 41.4312 250.936 41.6319 251.845 41.6319C252.35 41.6319 252.849 41.5129 253.341 41.2713C253.833 41.0315 254.08 40.6087 254.08 40.003C254.08 39.3972 253.776 38.994 253.17 38.7151C252.565 38.438 251.618 38.1466 250.33 37.8446C249.673 37.6936 249.017 37.4911 248.36 37.2389C247.703 36.9866 247.116 36.6456 246.599 36.2157C246.081 35.7858 245.658 35.2564 245.331 34.624C245.002 33.9934 244.839 33.2349 244.839 32.352C244.839 31.2151 245.079 30.2505 245.558 29.4547C246.038 28.6588 246.656 28.0087 247.415 27.5042C248.172 26.9997 249.012 26.6266 249.934 26.3868C250.856 26.147 251.771 26.0262 252.68 26.0262C254.094 26.0262 255.476 26.2482 256.828 26.6888C258.178 27.1311 259.322 27.7937 260.256 28.6766L256.848 32.1992L256.844 32.2028Z" fill="#231F20"/>
<path d="M192.327 57.0973C192.28 57.0511 192.257 56.9978 192.257 56.9357V50.9598C192.257 50.8923 192.28 50.8372 192.327 50.7946C192.373 50.752 192.426 50.7307 192.488 50.7307H195.293C196.066 50.7307 196.64 50.8888 197.016 51.205C197.393 51.5212 197.581 51.9688 197.581 52.5515C197.581 52.8588 197.503 53.1164 197.347 53.3278C197.19 53.5392 197.014 53.6937 196.817 53.7914C197.068 53.9087 197.279 54.0952 197.451 54.3528C197.624 54.6103 197.709 54.8981 197.709 55.2161C197.709 55.8289 197.507 56.3068 197.102 56.6496C196.697 56.9925 196.121 57.1648 195.373 57.1648H192.486C192.426 57.1648 192.371 57.1417 192.325 57.0955L192.327 57.0973ZM195.108 53.2869C195.354 53.2869 195.54 53.2247 195.67 53.0986C195.798 52.9725 195.863 52.8055 195.863 52.5977C195.863 52.3898 195.799 52.2335 195.67 52.1109C195.542 51.9884 195.354 51.9262 195.108 51.9262H193.913V53.2869H195.108ZM195.192 55.9711C195.442 55.9711 195.64 55.8982 195.78 55.7508C195.92 55.6033 195.991 55.4257 195.991 55.2179C195.991 54.9976 195.92 54.8146 195.78 54.6707C195.64 54.5268 195.442 54.454 195.192 54.454H193.915V55.9711H195.192Z" fill="#231F20"/>
<path d="M200.017 57.0974C199.97 57.0512 199.947 56.9979 199.947 56.9357V54.9586L197.814 51.0238C197.796 50.9688 197.785 50.935 197.785 50.9226C197.785 50.8728 197.805 50.8284 197.846 50.7893C197.885 50.7503 197.933 50.7289 197.988 50.7289H199.137C199.26 50.7289 199.366 50.7929 199.459 50.9226L200.773 53.2941L202.097 50.9226C202.17 50.7947 202.278 50.7289 202.418 50.7289H203.568C203.623 50.7289 203.669 50.7485 203.706 50.7893C203.744 50.8302 203.761 50.8728 203.761 50.9226C203.761 50.9528 203.756 50.9865 203.744 51.0238L201.61 54.9586V56.9357C201.61 57.0032 201.587 57.0583 201.541 57.1009C201.495 57.1436 201.438 57.1649 201.37 57.1649H200.175C200.114 57.1649 200.059 57.1418 200.013 57.0956L200.017 57.0974Z" fill="#231F20"/>
<path d="M206.213 57.0973C206.166 57.0511 206.143 56.9978 206.143 56.9357V50.9598C206.143 50.8923 206.166 50.8372 206.213 50.7946C206.259 50.752 206.312 50.7307 206.374 50.7307H208.765C209.666 50.7307 210.364 50.9456 210.862 51.3737C211.357 51.8036 211.618 52.4254 211.643 53.2389C211.648 53.4166 211.652 53.6528 211.652 53.9477C211.652 54.2426 211.648 54.4753 211.643 54.6459C211.613 55.4985 211.359 56.1309 210.885 56.5448C210.41 56.9587 209.719 57.1648 208.812 57.1648H206.376C206.316 57.1648 206.261 57.1417 206.214 57.0955L206.213 57.0973ZM208.764 55.8432C209.169 55.8432 209.465 55.7472 209.655 55.5536C209.845 55.36 209.947 55.0527 209.959 54.6299C209.972 54.4522 209.977 54.2231 209.977 53.9406C209.977 53.6582 209.972 53.4326 209.959 53.2603C209.947 52.8499 209.838 52.5461 209.632 52.3507C209.426 52.1553 209.122 52.0559 208.717 52.0559H207.799V55.8432H208.764Z" fill="#231F20"/>
<path d="M212.475 57.0973C212.428 57.0511 212.405 56.9978 212.405 56.9357V50.9598C212.405 50.8923 212.428 50.8372 212.475 50.7946C212.521 50.752 212.574 50.7307 212.636 50.7307H213.869C213.937 50.7307 213.993 50.752 214.04 50.7946C214.086 50.8372 214.109 50.8923 214.109 50.9598V56.9357C214.109 57.0032 214.086 57.0582 214.04 57.1009C213.993 57.1435 213.937 57.1648 213.869 57.1648H212.636C212.576 57.1648 212.521 57.1417 212.475 57.0955V57.0973Z" fill="#231F20"/>
<path d="M215.676 56.6106C215.18 56.179 214.915 55.5643 214.885 54.7667C214.878 54.5891 214.876 54.3066 214.876 53.9212C214.876 53.5357 214.88 53.2532 214.885 53.0756C214.915 52.2975 215.184 51.6971 215.69 51.2743C216.196 50.8515 216.88 50.6401 217.745 50.6401C218.328 50.6401 218.834 50.7361 219.268 50.9244C219.699 51.1144 220.03 51.356 220.261 51.6509C220.49 51.9458 220.611 52.2478 220.623 52.5604C220.623 52.6155 220.603 52.6617 220.563 52.699C220.523 52.7363 220.476 52.7541 220.42 52.7541H219.077C219.017 52.7541 218.967 52.7452 218.93 52.7256C218.893 52.7061 218.863 52.6741 218.838 52.6244C218.758 52.4467 218.632 52.2922 218.461 52.1607C218.289 52.0293 218.051 51.9636 217.743 51.9636C217.013 51.9636 216.631 52.349 216.594 53.1218C216.587 53.2941 216.585 53.5606 216.585 53.9212C216.585 54.2818 216.589 54.5429 216.594 54.7205C216.631 55.5288 217.022 55.9338 217.77 55.9338C218.132 55.9338 218.422 55.8397 218.639 55.6532C218.855 55.4666 218.966 55.1789 218.966 54.7934V54.6193H218.102C218.035 54.6193 217.98 54.5962 217.937 54.55C217.894 54.5038 217.873 54.447 217.873 54.3795V53.6991C217.873 53.6316 217.894 53.5748 217.937 53.5286C217.98 53.4824 218.035 53.4593 218.102 53.4593H220.419C220.486 53.4593 220.541 53.4824 220.584 53.5286C220.627 53.5748 220.648 53.6316 220.648 53.6991V54.7472C220.648 55.2677 220.529 55.7171 220.289 56.0937C220.051 56.4703 219.712 56.7581 219.273 56.9588C218.834 57.1578 218.324 57.2573 217.742 57.2573C216.859 57.2573 216.17 57.0405 215.674 56.6089L215.676 56.6106Z" fill="#231F20"/>
<path d="M221.463 57.0973C221.417 57.0511 221.394 56.9978 221.394 56.9357V50.9598C221.394 50.8923 221.417 50.8372 221.463 50.7946C221.509 50.752 221.563 50.7307 221.625 50.7307H222.858C222.925 50.7307 222.982 50.752 223.028 50.7946C223.074 50.8372 223.097 50.8923 223.097 50.9598V56.9357C223.097 57.0032 223.074 57.0582 223.028 57.1009C222.982 57.1435 222.925 57.1648 222.858 57.1648H221.625C221.564 57.1648 221.509 57.1417 221.463 57.0955V57.0973Z" fill="#231F20"/>
<path d="M225.574 57.0974C225.528 57.0512 225.504 56.9979 225.504 56.9357V52.1732H223.868C223.806 52.1732 223.753 52.1501 223.707 52.1039C223.661 52.0577 223.638 52.0044 223.638 51.9422V50.9581C223.638 50.8906 223.661 50.8355 223.707 50.7929C223.753 50.7503 223.806 50.7289 223.868 50.7289H228.814C228.881 50.7289 228.937 50.7503 228.979 50.7929C229.022 50.8355 229.043 50.8906 229.043 50.9581V51.9422C229.043 52.0097 229.022 52.0648 228.979 52.1074C228.937 52.1501 228.881 52.1714 228.814 52.1714H227.178V56.9339C227.178 56.9961 227.157 57.0494 227.114 57.0956C227.071 57.1418 227.016 57.1649 226.949 57.1649H225.735C225.673 57.1649 225.62 57.1418 225.574 57.0956V57.0974Z" fill="#231F20"/>
<path d="M230.576 57.0014C230.159 56.8291 229.846 56.6053 229.635 56.3264C229.423 56.0475 229.311 55.7419 229.299 55.4115C229.299 55.3618 229.318 55.3174 229.359 55.2783C229.4 55.2392 229.446 55.2179 229.501 55.2179H230.66C230.732 55.2179 230.793 55.2321 230.839 55.2587C230.885 55.2854 230.933 55.328 230.981 55.3831C231.061 55.543 231.189 55.6744 231.367 55.7792C231.544 55.884 231.781 55.9355 232.074 55.9355C232.424 55.9355 232.69 55.8805 232.873 55.7703C233.056 55.6602 233.148 55.5092 233.148 55.3191C233.148 55.1841 233.1 55.074 233.006 54.9887C232.91 54.9035 232.763 54.8271 232.56 54.7596C232.358 54.6921 232.058 54.6157 231.66 54.5304C230.924 54.3776 230.374 54.152 230.01 53.8554C229.645 53.5587 229.462 53.1342 229.462 52.5817C229.462 52.2086 229.567 51.8729 229.775 51.5798C229.983 51.2849 230.281 51.0558 230.667 50.8905C231.052 50.7253 231.503 50.6418 232.019 50.6418C232.534 50.6418 233.015 50.7342 233.406 50.9172C233.797 51.1002 234.097 51.3329 234.303 51.6118C234.509 51.8907 234.618 52.1642 234.63 52.4342C234.63 52.4893 234.612 52.5355 234.575 52.5728C234.538 52.6101 234.491 52.6279 234.436 52.6279H233.223C233.15 52.6279 233.09 52.6154 233.044 52.5906C232.997 52.5657 232.957 52.5266 232.919 52.4716C232.882 52.3312 232.782 52.2104 232.621 52.1127C232.459 52.015 232.258 51.9653 232.019 51.9653C231.743 51.9653 231.532 52.015 231.384 52.1127C231.237 52.2104 231.164 52.3543 231.164 52.5444C231.164 52.6723 231.205 52.7806 231.289 52.8659C231.372 52.9512 231.505 53.0293 231.694 53.1004C231.88 53.1715 232.148 53.2425 232.498 53.3171C233.068 53.4219 233.523 53.5516 233.864 53.7079C234.204 53.8643 234.454 54.0668 234.614 54.3155C234.774 54.5642 234.852 54.875 234.852 55.2481C234.852 55.6584 234.735 56.0155 234.498 56.3193C234.262 56.623 233.935 56.8557 233.514 57.0174C233.095 57.179 232.616 57.2607 232.075 57.2607C231.493 57.2607 230.994 57.1755 230.576 57.0032V57.0014Z" fill="#231F20"/>
<path d="M235.522 57.0973C235.475 57.0511 235.452 56.9978 235.452 56.9357V50.9598C235.452 50.8923 235.475 50.8372 235.522 50.7946C235.568 50.752 235.621 50.7307 235.683 50.7307H238.257C239.043 50.7307 239.659 50.9118 240.11 51.2725C240.561 51.6348 240.785 52.1607 240.785 52.8535C240.785 53.5463 240.561 54.0561 240.114 54.4025C239.666 54.7489 239.048 54.9212 238.257 54.9212H237.163V56.9339C237.163 57.0014 237.14 57.0564 237.094 57.0991C237.048 57.1417 236.991 57.163 236.923 57.163H235.682C235.621 57.163 235.566 57.1399 235.52 57.0938L235.522 57.0973ZM238.211 53.6546C238.481 53.6546 238.693 53.5853 238.845 53.4486C238.998 53.31 239.074 53.1075 239.074 52.8375C239.074 52.5852 239.002 52.3863 238.858 52.2353C238.714 52.0843 238.497 52.0097 238.209 52.0097H237.135V53.6546H238.209H238.211Z" fill="#231F20"/>
<path d="M240.485 57.108C240.446 57.0689 240.425 57.0245 240.425 56.9748C240.425 56.9375 240.428 56.9108 240.433 56.8913L242.594 50.9901C242.611 50.9172 242.652 50.8551 242.713 50.8053C242.773 50.7556 242.853 50.7325 242.951 50.7325H244.311C244.409 50.7325 244.489 50.7574 244.549 50.8053C244.61 50.8551 244.651 50.9155 244.668 50.9901L246.82 56.8913L246.837 56.9748C246.837 57.0245 246.818 57.0689 246.777 57.108C246.736 57.1471 246.69 57.1684 246.635 57.1684H245.503C245.356 57.1684 245.258 57.1045 245.208 56.9748L244.85 56.0368H242.395L242.045 56.9748C241.995 57.1027 241.894 57.1684 241.741 57.1684H240.609C240.56 57.1684 240.515 57.1489 240.476 57.108H240.485ZM244.489 54.7134L243.635 52.2868L242.78 54.7134H244.489Z" fill="#231F20"/>
<path d="M247.404 57.0973C247.358 57.0511 247.335 56.9978 247.335 56.9357V50.9598C247.335 50.8923 247.358 50.8372 247.404 50.7946C247.45 50.752 247.504 50.7307 247.566 50.7307H250.067C250.87 50.7307 251.497 50.9136 251.946 51.2778C252.398 51.642 252.621 52.1589 252.621 52.8268C252.621 53.2567 252.52 53.6209 252.318 53.9211C252.115 54.2213 251.836 54.4505 251.481 54.6103L252.74 56.8717C252.758 56.909 252.769 56.9428 252.769 56.973C252.769 57.0227 252.749 57.0671 252.708 57.1062C252.669 57.1453 252.625 57.1666 252.575 57.1666H251.353C251.175 57.1666 251.049 57.0831 250.976 56.9179L249.928 54.8946H248.99V56.9357C248.99 57.0032 248.967 57.0582 248.921 57.1009C248.875 57.1435 248.818 57.1648 248.751 57.1648H247.564C247.504 57.1648 247.448 57.1417 247.402 57.0955L247.404 57.0973ZM250.047 53.5907C250.33 53.5907 250.543 53.5214 250.69 53.3846C250.838 53.246 250.911 53.056 250.911 52.8108C250.911 52.5657 250.838 52.3703 250.694 52.2264C250.55 52.0825 250.333 52.0097 250.046 52.0097H248.989V53.5907H250.046H250.047Z" fill="#231F20"/>
<path d="M253.419 57.0973C253.373 57.0511 253.35 56.9978 253.35 56.9357V50.9598C253.35 50.8923 253.373 50.8372 253.419 50.7946C253.465 50.752 253.518 50.7307 253.581 50.7307H254.739C254.806 50.7307 254.861 50.752 254.904 50.7946C254.947 50.8372 254.968 50.8923 254.968 50.9598V53.0009L256.668 50.9047C256.741 50.7875 256.862 50.7307 257.027 50.7307H258.35C258.405 50.7307 258.452 50.7502 258.489 50.7911C258.526 50.8319 258.544 50.8745 258.544 50.9243C258.544 50.9669 258.535 51.0042 258.516 51.0344L256.309 53.811L258.681 56.8628C258.706 56.8877 258.718 56.925 258.718 56.973C258.718 57.0209 258.7 57.0671 258.663 57.1062C258.626 57.1453 258.579 57.1666 258.524 57.1666H257.155C257.007 57.1666 256.885 57.1062 256.787 56.9818L254.966 54.7116V56.9357C254.966 57.0032 254.945 57.0582 254.902 57.1009C254.86 57.1435 254.805 57.1648 254.737 57.1648H253.579C253.518 57.1648 253.463 57.1417 253.417 57.0955L253.419 57.0973Z" fill="#231F20"/>
<path d="M71.671 45.0249C69.9284 45.8207 67.921 46.2186 65.649 46.2186C63.5777 46.2186 61.6645 45.8776 59.9112 45.1954C58.1561 44.5133 56.6355 43.5469 55.3476 42.2981C54.0597 41.0493 53.0489 39.5518 52.3171 37.8091C51.5852 36.0665 51.2192 34.1479 51.2192 32.0518C51.2192 29.9556 51.5923 27.9607 52.3366 26.2181C53.0809 24.4754 54.1095 22.9921 55.424 21.7681C56.7368 20.5442 58.2769 19.6027 60.0444 18.9454C61.812 18.2899 63.7181 17.9613 65.7645 17.9613C67.6581 17.9613 69.5198 18.297 71.3513 18.965C73.181 19.6347 74.6661 20.6135 75.8012 21.8996L71.4081 26.2927C70.8024 25.4595 70.0065 24.8413 69.0224 24.4363C68.0383 24.0331 67.0275 23.8306 65.9919 23.8306C64.855 23.8306 63.814 24.0384 62.8672 24.4559C61.9203 24.8733 61.105 25.4471 60.4246 26.179C59.7425 26.9109 59.2131 27.776 58.8329 28.7743C58.4546 29.7726 58.2645 30.8634 58.2645 32.05C58.2645 33.2366 58.4546 34.3735 58.8329 35.3825C59.2113 36.3933 59.7353 37.2567 60.4051 37.9779C61.073 38.6973 61.8759 39.2605 62.8103 39.6637C63.7447 40.0687 64.7661 40.2695 65.8782 40.2695C67.1661 40.2695 68.2888 40.0172 69.2498 39.5127C70.2091 39.0082 70.9782 38.3509 71.5609 37.5427L76.0676 41.7847C74.881 43.149 73.4155 44.2273 71.6746 45.0231L71.671 45.0249Z" fill="#231F20"/>
<path d="M89.7726 45.4974V35.2706C89.7726 34.7395 89.7353 34.235 89.6589 33.7553C89.5825 33.2757 89.4369 32.8529 89.2237 32.487C89.0088 32.121 88.7245 31.8297 88.371 31.6165C88.0175 31.4016 87.5628 31.295 87.0068 31.295C85.9214 31.295 85.0882 31.6805 84.5073 32.4497C83.9265 33.2206 83.6369 34.1728 83.6369 35.3097V45.4992H77.4248V16.8635H83.6369V29.023H83.7133C84.1432 28.2662 84.8235 27.5894 85.7579 26.9961C86.6923 26.4028 87.815 26.1061 89.1296 26.1061C90.4441 26.1061 91.4975 26.3335 92.368 26.7883C93.2384 27.243 93.9454 27.8292 94.489 28.5505C95.0326 29.2699 95.4234 30.0977 95.6632 31.0321C95.903 31.9665 96.0238 32.9009 96.0238 33.8353V45.501H89.7744L89.7726 45.4974Z" fill="#231F20"/>
<path d="M111.553 45.4974V42.8843H111.477C111.249 43.3142 110.953 43.7174 110.587 44.0958C110.221 44.4742 109.791 44.8028 109.299 45.0799C108.807 45.3588 108.263 45.5844 107.67 45.762C107.077 45.9379 106.451 46.0267 105.796 46.0267C104.533 46.0267 103.467 45.7994 102.595 45.3446C101.724 44.8898 101.016 44.3036 100.474 43.5824C99.9301 42.8629 99.5393 42.0422 99.2995 41.1203C99.0597 40.1983 98.9389 39.2586 98.9389 38.2976V26.6319H105.188V36.8587C105.188 37.3898 105.226 37.8943 105.302 38.374C105.378 38.8536 105.522 39.2835 105.737 39.6619C105.952 40.0402 106.236 40.3369 106.59 40.5518C106.943 40.7668 107.411 40.8734 107.991 40.8734C109.077 40.8734 109.905 40.4701 110.473 39.6619C111.042 38.8536 111.326 37.9068 111.326 36.8214V26.6319H117.538V45.4956H111.553V45.4974Z" fill="#231F20"/>
<path d="M128.234 31.2559V38.4806C128.234 39.367 128.404 40.0331 128.745 40.4772C129.086 40.9213 129.697 41.1434 130.582 41.1434C130.886 41.1434 131.207 41.1185 131.548 41.067C131.89 41.0173 132.174 40.9409 132.401 40.8396L132.478 45.3855C132.048 45.5364 131.506 45.6697 130.849 45.7834C130.191 45.8971 129.536 45.9539 128.879 45.9539C127.615 45.9539 126.555 45.7958 125.697 45.4796C124.839 45.1634 124.15 44.7086 123.633 44.1118C123.114 43.5167 122.743 42.8079 122.515 41.9854C122.288 41.1629 122.174 40.2445 122.174 39.232V31.2577H119.144V26.6372H122.135V21.6757H128.234V26.6372H132.666V31.2577H128.234V31.2559Z" fill="#231F20"/>
<path d="M147.817 45.4974V35.1942C147.817 34.663 147.772 34.1585 147.684 33.6789C147.595 33.1993 147.449 32.7765 147.248 32.4106C147.046 32.0446 146.762 31.7551 146.396 31.5401C146.03 31.3252 145.568 31.2186 145.014 31.2186C144.459 31.2186 143.973 31.327 143.555 31.5401C143.138 31.7551 142.791 32.0517 142.514 32.4301C142.235 32.8085 142.028 33.2437 141.889 33.7375C141.75 34.2296 141.681 34.7412 141.681 35.2724V45.4991H135.432V26.6355H141.454V29.2486H141.53C141.757 28.8453 142.054 28.4474 142.42 28.0548C142.786 27.664 143.216 27.33 143.708 27.0511C144.2 26.774 144.737 26.5466 145.317 26.369C145.898 26.1931 146.516 26.1043 147.174 26.1043C148.437 26.1043 149.51 26.3317 150.393 26.7864C151.275 27.2412 151.99 27.8274 152.533 28.5487C153.077 29.2681 153.468 30.0959 153.707 31.0303C153.947 31.9647 154.068 32.8991 154.068 33.8335V45.4991H147.819L147.817 45.4974Z" fill="#231F20"/>
<path d="M175.088 36.2938V37.0506C175.088 37.3028 175.076 37.5426 175.051 37.77H161.378C161.428 38.3012 161.586 38.7808 161.852 39.2089C162.117 39.6388 162.458 40.0101 162.875 40.3263C163.293 40.6425 163.758 40.8894 164.277 41.0653C164.794 41.2429 165.33 41.3299 165.886 41.3299C166.871 41.3299 167.704 41.147 168.386 40.781C169.068 40.4151 169.622 39.9426 170.052 39.3599L174.371 42.0867C173.486 43.3746 172.319 44.3658 170.867 45.0604C169.414 45.755 167.729 46.1014 165.81 46.1014C164.396 46.1014 163.057 45.8793 161.795 45.4388C160.532 44.9964 159.427 44.3534 158.481 43.5078C157.534 42.6622 156.788 41.6213 156.246 40.3831C155.702 39.1467 155.432 37.7309 155.432 36.1411C155.432 34.5512 155.697 33.2046 156.228 31.9558C156.757 30.7052 157.479 29.6447 158.386 28.7743C159.294 27.9038 160.369 27.227 161.605 26.7474C162.842 26.2678 164.181 26.028 165.62 26.028C167.059 26.028 168.285 26.2624 169.446 26.7279C170.608 27.1951 171.605 27.8701 172.438 28.7547C173.271 29.6394 173.921 30.7123 174.388 31.9736C174.856 33.2366 175.09 34.6755 175.09 36.292L175.088 36.2938ZM169.368 33.9081C169.368 32.924 169.059 32.0784 168.441 31.3696C167.821 30.6626 166.894 30.3091 165.657 30.3091C165.052 30.3091 164.495 30.4032 163.991 30.5933C163.485 30.7834 163.044 31.0428 162.666 31.3696C162.287 31.6983 161.984 32.0837 161.756 32.5243C161.529 32.9666 161.403 33.4267 161.378 33.9063H169.37L169.368 33.9081Z" fill="#231F20"/>
<path d="M187.621 48.3397C187.242 49.3238 186.82 50.2013 186.352 50.9723C185.885 51.7415 185.329 52.3987 184.686 52.9423C184.043 53.4859 183.285 53.8945 182.414 54.1734C181.544 54.4505 180.513 54.5908 179.327 54.5908C178.746 54.5908 178.145 54.5535 177.527 54.4771C176.907 54.4008 176.373 54.2995 175.918 54.1734L176.6 48.9472C176.904 49.0484 177.238 49.1302 177.604 49.1941C177.97 49.2563 178.304 49.2883 178.607 49.2883C179.567 49.2883 180.261 49.0662 180.691 48.6257C181.121 48.1833 181.487 47.558 181.789 46.7515L182.395 45.199L174.516 26.639H181.41L185.615 38.7595H185.729L189.479 26.639H196.069L187.623 48.3432L187.621 48.3397Z" fill="#231F20"/>
<path d="M213.908 45.4974L211.824 40.2321H201.447L199.477 45.4974H192.431L203.681 18.6807H209.968L221.104 45.4974H213.908ZM206.712 25.8397L203.303 35.0432H210.044L206.712 25.8397Z" fill="#231F20"/>
<path d="M235.785 45.4974V43.0353H235.708C235.102 43.9946 234.237 44.7335 233.113 45.2505C231.988 45.7674 230.796 46.0268 229.533 46.0268C228.119 46.0268 226.856 45.7479 225.746 45.1936C224.634 44.6394 223.694 43.9004 222.925 42.9785C222.154 42.0565 221.568 40.9907 221.163 39.7774C220.758 38.5659 220.557 37.3028 220.557 35.9901C220.557 34.6773 220.765 33.4214 221.183 32.2205C221.6 31.0214 222.192 29.9663 222.963 29.0585C223.732 28.149 224.666 27.4295 225.766 26.9002C226.864 26.3708 228.095 26.1043 229.459 26.1043C230.823 26.1043 232.022 26.369 232.981 26.9002C233.941 27.4313 234.687 28.0122 235.216 28.6428H235.293V16.8635H241.505V45.4992H235.785V45.4974ZM235.557 36.0274C235.557 35.4216 235.449 34.8283 235.236 34.2474C235.021 33.6665 234.717 33.1496 234.326 32.6948C233.934 32.2401 233.461 31.8741 232.905 31.597C232.349 31.3199 231.718 31.1795 231.011 31.1795C230.304 31.1795 229.635 31.3181 229.079 31.597C228.523 31.8759 228.055 32.2347 227.677 32.6771C227.299 33.1194 227.015 33.631 226.824 34.2119C226.634 34.7928 226.54 35.3861 226.54 35.9918C226.54 36.5976 226.634 37.198 226.824 37.7913C227.015 38.3847 227.299 38.9087 227.677 39.3635C228.055 39.8182 228.523 40.1842 229.079 40.4613C229.633 40.7402 230.278 40.877 231.011 40.877C231.745 40.877 232.349 40.7384 232.905 40.4613C233.459 40.1842 233.934 39.8182 234.326 39.3635C234.717 38.9087 235.021 38.3918 235.236 37.8109C235.451 37.23 235.557 36.6367 235.557 36.0309V36.0274Z" fill="#231F20"/>
<path d="M256.844 32.2028C256.339 31.7231 255.746 31.3199 255.064 30.9913C254.382 30.6626 253.662 30.4992 252.906 30.4992C252.325 30.4992 251.788 30.6129 251.296 30.8403C250.804 31.0676 250.557 31.4584 250.557 32.0145C250.557 32.5705 250.829 32.924 251.371 33.1514C251.913 33.3787 252.792 33.631 254.003 33.9081C254.71 34.0591 255.425 34.2741 256.144 34.5512C256.864 34.8301 257.514 35.1942 258.095 35.649C258.675 36.1038 259.143 36.6598 259.496 37.3153C259.85 37.9725 260.027 38.7542 260.027 39.6637C260.027 40.8503 259.787 41.854 259.308 42.6747C258.828 43.4954 258.203 44.158 257.434 44.6625C256.663 45.1688 255.798 45.5329 254.838 45.7603C253.879 45.9877 252.92 46.1014 251.959 46.1014C250.419 46.1014 248.909 45.8545 247.433 45.3624C245.955 44.8703 244.724 44.1438 243.739 43.1845L247.225 39.5109C247.779 40.1167 248.461 40.6229 249.269 41.0262C250.078 41.4312 250.936 41.6319 251.845 41.6319C252.35 41.6319 252.849 41.5129 253.341 41.2713C253.833 41.0315 254.08 40.6087 254.08 40.003C254.08 39.3972 253.776 38.994 253.17 38.7151C252.565 38.438 251.618 38.1466 250.33 37.8446C249.673 37.6936 249.017 37.4911 248.36 37.2389C247.703 36.9866 247.116 36.6456 246.599 36.2157C246.081 35.7858 245.658 35.2564 245.331 34.624C245.002 33.9934 244.839 33.2349 244.839 32.352C244.839 31.2151 245.079 30.2505 245.558 29.4547C246.038 28.6588 246.656 28.0087 247.415 27.5042C248.172 26.9997 249.012 26.6266 249.934 26.3868C250.856 26.147 251.771 26.0262 252.68 26.0262C254.094 26.0262 255.476 26.2482 256.828 26.6888C258.178 27.1311 259.322 27.7937 260.256 28.6766L256.848 32.1992L256.844 32.2028Z" fill="#231F20"/>
<path d="M192.327 57.0973C192.28 57.0511 192.257 56.9978 192.257 56.9357V50.9598C192.257 50.8923 192.28 50.8372 192.327 50.7946C192.373 50.752 192.426 50.7307 192.488 50.7307H195.293C196.066 50.7307 196.64 50.8888 197.016 51.205C197.393 51.5212 197.581 51.9688 197.581 52.5515C197.581 52.8588 197.503 53.1164 197.347 53.3278C197.19 53.5392 197.014 53.6937 196.817 53.7914C197.068 53.9087 197.279 54.0952 197.451 54.3528C197.624 54.6103 197.709 54.8981 197.709 55.2161C197.709 55.8289 197.507 56.3068 197.102 56.6496C196.697 56.9925 196.121 57.1648 195.373 57.1648H192.486C192.426 57.1648 192.371 57.1417 192.325 57.0955L192.327 57.0973ZM195.108 53.2869C195.354 53.2869 195.54 53.2247 195.67 53.0986C195.798 52.9725 195.863 52.8055 195.863 52.5977C195.863 52.3898 195.799 52.2335 195.67 52.1109C195.542 51.9884 195.354 51.9262 195.108 51.9262H193.913V53.2869H195.108ZM195.192 55.9711C195.442 55.9711 195.64 55.8982 195.78 55.7508C195.92 55.6033 195.991 55.4257 195.991 55.2179C195.991 54.9976 195.92 54.8146 195.78 54.6707C195.64 54.5268 195.442 54.454 195.192 54.454H193.915V55.9711H195.192Z" fill="#4C4C4D"/>
<path d="M200.017 57.0974C199.97 57.0512 199.947 56.9979 199.947 56.9357V54.9586L197.814 51.0238C197.796 50.9688 197.785 50.935 197.785 50.9226C197.785 50.8728 197.805 50.8284 197.846 50.7893C197.885 50.7503 197.933 50.7289 197.988 50.7289H199.137C199.26 50.7289 199.366 50.7929 199.459 50.9226L200.773 53.2941L202.097 50.9226C202.17 50.7947 202.278 50.7289 202.418 50.7289H203.568C203.623 50.7289 203.669 50.7485 203.706 50.7893C203.744 50.8302 203.761 50.8728 203.761 50.9226C203.761 50.9528 203.756 50.9865 203.744 51.0238L201.61 54.9586V56.9357C201.61 57.0032 201.587 57.0583 201.541 57.1009C201.495 57.1436 201.438 57.1649 201.37 57.1649H200.175C200.114 57.1649 200.059 57.1418 200.013 57.0956L200.017 57.0974Z" fill="#4C4C4D"/>
<path d="M206.213 57.0973C206.167 57.0511 206.143 56.9978 206.143 56.9357V50.9598C206.143 50.8923 206.167 50.8372 206.213 50.7946C206.259 50.752 206.312 50.7307 206.374 50.7307H208.765C209.666 50.7307 210.364 50.9456 210.862 51.3737C211.357 51.8036 211.618 52.4254 211.643 53.2389C211.649 53.4166 211.652 53.6528 211.652 53.9477C211.652 54.2426 211.649 54.4753 211.643 54.6459C211.613 55.4985 211.359 56.1309 210.885 56.5448C210.41 56.9587 209.719 57.1648 208.812 57.1648H206.376C206.316 57.1648 206.261 57.1417 206.214 57.0955L206.213 57.0973ZM208.764 55.8432C209.169 55.8432 209.465 55.7472 209.655 55.5536C209.845 55.36 209.947 55.0527 209.959 54.6299C209.972 54.4522 209.977 54.2231 209.977 53.9406C209.977 53.6582 209.972 53.4326 209.959 53.2603C209.947 52.8499 209.838 52.5461 209.632 52.3507C209.426 52.1553 209.122 52.0559 208.717 52.0559H207.799V55.8432H208.764Z" fill="#4C4C4D"/>
<path d="M212.475 57.0973C212.428 57.0511 212.405 56.9978 212.405 56.9357V50.9598C212.405 50.8923 212.428 50.8372 212.475 50.7946C212.521 50.752 212.574 50.7307 212.636 50.7307H213.869C213.937 50.7307 213.993 50.752 214.04 50.7946C214.086 50.8372 214.109 50.8923 214.109 50.9598V56.9357C214.109 57.0032 214.086 57.0582 214.04 57.1009C213.993 57.1435 213.937 57.1648 213.869 57.1648H212.636C212.576 57.1648 212.521 57.1417 212.475 57.0955V57.0973Z" fill="#4C4C4D"/>
<path d="M215.676 56.6106C215.18 56.179 214.915 55.5643 214.885 54.7667C214.878 54.5891 214.876 54.3066 214.876 53.9212C214.876 53.5357 214.88 53.2532 214.885 53.0756C214.915 52.2975 215.184 51.6971 215.69 51.2743C216.196 50.8515 216.88 50.6401 217.745 50.6401C218.328 50.6401 218.834 50.7361 219.268 50.9244C219.699 51.1144 220.03 51.356 220.261 51.6509C220.49 51.9458 220.611 52.2478 220.623 52.5604C220.623 52.6155 220.603 52.6617 220.563 52.699C220.523 52.7363 220.476 52.7541 220.42 52.7541H219.077C219.017 52.7541 218.967 52.7452 218.93 52.7256C218.893 52.7061 218.863 52.6741 218.838 52.6244C218.758 52.4467 218.632 52.2922 218.461 52.1607C218.289 52.0293 218.051 51.9636 217.743 51.9636C217.013 51.9636 216.631 52.349 216.594 53.1218C216.587 53.2941 216.585 53.5606 216.585 53.9212C216.585 54.2818 216.589 54.5429 216.594 54.7205C216.631 55.5288 217.022 55.9338 217.77 55.9338C218.132 55.9338 218.422 55.8397 218.639 55.6532C218.855 55.4666 218.966 55.1789 218.966 54.7934V54.6193H218.102C218.035 54.6193 217.98 54.5962 217.937 54.55C217.894 54.5038 217.873 54.447 217.873 54.3795V53.6991C217.873 53.6316 217.894 53.5748 217.937 53.5286C217.98 53.4824 218.035 53.4593 218.102 53.4593H220.419C220.486 53.4593 220.541 53.4824 220.584 53.5286C220.627 53.5748 220.648 53.6316 220.648 53.6991V54.7472C220.648 55.2677 220.529 55.7171 220.289 56.0937C220.051 56.4703 219.712 56.7581 219.273 56.9588C218.834 57.1578 218.324 57.2573 217.742 57.2573C216.859 57.2573 216.17 57.0405 215.674 56.6089L215.676 56.6106Z" fill="#4C4C4D"/>
<path d="M221.463 57.0973C221.417 57.0511 221.394 56.9978 221.394 56.9357V50.9598C221.394 50.8923 221.417 50.8372 221.463 50.7946C221.509 50.752 221.563 50.7307 221.625 50.7307H222.858C222.925 50.7307 222.982 50.752 223.028 50.7946C223.074 50.8372 223.097 50.8923 223.097 50.9598V56.9357C223.097 57.0032 223.074 57.0582 223.028 57.1009C222.982 57.1435 222.925 57.1648 222.858 57.1648H221.625C221.564 57.1648 221.509 57.1417 221.463 57.0955V57.0973Z" fill="#4C4C4D"/>
<path d="M225.574 57.0974C225.528 57.0512 225.504 56.9979 225.504 56.9357V52.1732H223.868C223.806 52.1732 223.753 52.1501 223.707 52.1039C223.661 52.0577 223.638 52.0044 223.638 51.9422V50.9581C223.638 50.8906 223.661 50.8355 223.707 50.7929C223.753 50.7503 223.806 50.7289 223.868 50.7289H228.814C228.881 50.7289 228.937 50.7503 228.979 50.7929C229.022 50.8355 229.043 50.8906 229.043 50.9581V51.9422C229.043 52.0097 229.022 52.0648 228.979 52.1074C228.937 52.1501 228.881 52.1714 228.814 52.1714H227.178V56.9339C227.178 56.9961 227.157 57.0494 227.114 57.0956C227.071 57.1418 227.016 57.1649 226.949 57.1649H225.735C225.673 57.1649 225.62 57.1418 225.574 57.0956V57.0974Z" fill="#4C4C4D"/>
<path d="M230.576 57.0014C230.159 56.8291 229.846 56.6053 229.635 56.3264C229.423 56.0475 229.311 55.7419 229.299 55.4115C229.299 55.3618 229.318 55.3174 229.359 55.2783C229.4 55.2392 229.446 55.2179 229.501 55.2179H230.66C230.732 55.2179 230.793 55.2321 230.839 55.2587C230.885 55.2854 230.933 55.328 230.981 55.3831C231.061 55.543 231.189 55.6744 231.367 55.7792C231.544 55.884 231.781 55.9355 232.074 55.9355C232.424 55.9355 232.69 55.8805 232.873 55.7703C233.056 55.6602 233.148 55.5092 233.148 55.3191C233.148 55.1841 233.1 55.074 233.006 54.9887C232.91 54.9035 232.763 54.8271 232.56 54.7596C232.358 54.6921 232.058 54.6157 231.66 54.5304C230.924 54.3776 230.374 54.152 230.01 53.8554C229.645 53.5587 229.462 53.1342 229.462 52.5817C229.462 52.2086 229.567 51.8729 229.775 51.5798C229.983 51.2849 230.281 51.0558 230.667 50.8905C231.052 50.7253 231.503 50.6418 232.019 50.6418C232.534 50.6418 233.015 50.7342 233.406 50.9172C233.797 51.1002 234.097 51.3329 234.303 51.6118C234.509 51.8907 234.618 52.1642 234.63 52.4342C234.63 52.4893 234.612 52.5355 234.575 52.5728C234.538 52.6101 234.491 52.6279 234.436 52.6279H233.223C233.15 52.6279 233.09 52.6154 233.044 52.5906C232.997 52.5657 232.957 52.5266 232.919 52.4716C232.882 52.3312 232.782 52.2104 232.621 52.1127C232.459 52.015 232.258 51.9653 232.019 51.9653C231.743 51.9653 231.532 52.015 231.384 52.1127C231.237 52.2104 231.164 52.3543 231.164 52.5444C231.164 52.6723 231.205 52.7806 231.289 52.8659C231.372 52.9512 231.505 53.0293 231.694 53.1004C231.88 53.1715 232.148 53.2425 232.498 53.3171C233.068 53.4219 233.523 53.5516 233.864 53.7079C234.204 53.8643 234.454 54.0668 234.614 54.3155C234.774 54.5642 234.852 54.875 234.852 55.2481C234.852 55.6584 234.735 56.0155 234.498 56.3193C234.262 56.623 233.935 56.8557 233.514 57.0174C233.095 57.179 232.616 57.2607 232.075 57.2607C231.493 57.2607 230.994 57.1755 230.576 57.0032V57.0014Z" fill="#4C4C4D"/>
<path d="M235.522 57.0973C235.475 57.0511 235.452 56.9978 235.452 56.9357V50.9598C235.452 50.8923 235.475 50.8372 235.522 50.7946C235.568 50.752 235.621 50.7307 235.683 50.7307H238.257C239.043 50.7307 239.659 50.9118 240.11 51.2725C240.561 51.6348 240.785 52.1607 240.785 52.8535C240.785 53.5463 240.561 54.0561 240.114 54.4025C239.666 54.7489 239.048 54.9212 238.257 54.9212H237.163V56.9339C237.163 57.0014 237.14 57.0564 237.094 57.0991C237.048 57.1417 236.991 57.163 236.923 57.163H235.682C235.621 57.163 235.566 57.1399 235.52 57.0938L235.522 57.0973ZM238.211 53.6546C238.481 53.6546 238.693 53.5853 238.845 53.4486C238.998 53.31 239.074 53.1075 239.074 52.8375C239.074 52.5852 239.002 52.3863 238.858 52.2353C238.714 52.0843 238.497 52.0097 238.209 52.0097H237.135V53.6546H238.209H238.211Z" fill="#4C4C4D"/>
<path d="M240.485 57.108C240.446 57.0689 240.425 57.0245 240.425 56.9748C240.425 56.9375 240.428 56.9108 240.433 56.8913L242.594 50.9901C242.611 50.9172 242.652 50.8551 242.713 50.8053C242.773 50.7556 242.853 50.7325 242.951 50.7325H244.311C244.409 50.7325 244.489 50.7574 244.549 50.8053C244.61 50.8551 244.651 50.9155 244.668 50.9901L246.82 56.8913L246.837 56.9748C246.837 57.0245 246.818 57.0689 246.777 57.108C246.736 57.1471 246.69 57.1684 246.635 57.1684H245.503C245.356 57.1684 245.258 57.1045 245.208 56.9748L244.85 56.0368H242.395L242.045 56.9748C241.995 57.1027 241.894 57.1684 241.741 57.1684H240.609C240.56 57.1684 240.515 57.1489 240.476 57.108H240.485ZM244.489 54.7134L243.635 52.2868L242.78 54.7134H244.489Z" fill="#4C4C4D"/>
<path d="M247.404 57.0973C247.358 57.0511 247.335 56.9978 247.335 56.9357V50.9598C247.335 50.8923 247.358 50.8372 247.404 50.7946C247.45 50.752 247.504 50.7307 247.566 50.7307H250.067C250.87 50.7307 251.497 50.9136 251.946 51.2778C252.398 51.642 252.621 52.1589 252.621 52.8268C252.621 53.2567 252.52 53.6209 252.318 53.9211C252.115 54.2213 251.836 54.4505 251.481 54.6103L252.74 56.8717C252.758 56.909 252.769 56.9428 252.769 56.973C252.769 57.0227 252.749 57.0671 252.708 57.1062C252.669 57.1453 252.625 57.1666 252.575 57.1666H251.353C251.175 57.1666 251.049 57.0831 250.976 56.9179L249.928 54.8946H248.99V56.9357C248.99 57.0032 248.967 57.0582 248.921 57.1009C248.875 57.1435 248.818 57.1648 248.751 57.1648H247.564C247.504 57.1648 247.449 57.1417 247.402 57.0955L247.404 57.0973ZM250.047 53.5907C250.33 53.5907 250.543 53.5214 250.69 53.3846C250.838 53.246 250.911 53.056 250.911 52.8108C250.911 52.5657 250.838 52.3703 250.694 52.2264C250.55 52.0825 250.333 52.0097 250.046 52.0097H248.989V53.5907H250.046H250.047Z" fill="#4C4C4D"/>
<path d="M253.419 57.0973C253.373 57.0511 253.35 56.9978 253.35 56.9357V50.9598C253.35 50.8923 253.373 50.8372 253.419 50.7946C253.465 50.752 253.518 50.7307 253.581 50.7307H254.739C254.806 50.7307 254.861 50.752 254.904 50.7946C254.947 50.8372 254.968 50.8923 254.968 50.9598V53.0009L256.668 50.9047C256.741 50.7875 256.862 50.7307 257.027 50.7307H258.35C258.405 50.7307 258.452 50.7502 258.489 50.7911C258.526 50.8319 258.544 50.8745 258.544 50.9243C258.544 50.9669 258.535 51.0042 258.516 51.0344L256.309 53.811L258.681 56.8628C258.706 56.8877 258.718 56.925 258.718 56.973C258.718 57.0209 258.7 57.0671 258.663 57.1062C258.626 57.1453 258.579 57.1666 258.524 57.1666H257.155C257.007 57.1666 256.885 57.1062 256.787 56.9818L254.966 54.7116V56.9357C254.966 57.0032 254.945 57.0582 254.902 57.1009C254.86 57.1435 254.805 57.1648 254.737 57.1648H253.579C253.518 57.1648 253.463 57.1417 253.417 57.0955L253.419 57.0973Z" fill="#4C4C4D"/>
<path d="M23.9993 48.0004H11.9996V60H23.9993V48.0004Z" fill="#D81F26"/>
<path d="M11.9996 36.0007H0V48.0004H11.9996V36.0007Z" fill="#E08C23"/>
<path d="M23.9993 36.0007H11.9996V48.0004H23.9993V36.0007Z" fill="#D81F26"/>
<path d="M35.9989 36.0007H23.9993V48.0004H35.9989V36.0007Z" fill="#D81F26"/>
<path d="M11.9996 23.9993H0V35.9989H11.9996V23.9993Z" fill="#E6B71D"/>
<path d="M23.9993 23.9993H11.9996V35.9989H23.9993V23.9993Z" fill="#E08C23"/>
<path d="M35.9989 23.9993H23.9993V35.9989H35.9989V23.9993Z" fill="#D81F26"/>
<path d="M23.9993 11.9996H11.9996V23.9993H23.9993V11.9996Z" fill="#E6B71D"/>
<path d="M35.9989 11.9996H23.9993V23.9993H35.9989V11.9996Z" fill="#E08C23"/>
<path d="M35.9989 0H23.9993V11.9996H35.9989V0Z" fill="#E6B71D"/>
</svg>
